<?xml version="1.0" encoding="UTF-8" standalone="no"?>
<!DOCTYPE svg PUBLIC "-//W3C//DTD SVG 1.1//EN"
 "http://www.w3.org/Graphics/SVG/1.1/DTD/svg11.dtd">
<!-- Generated by graphviz version 2.26.3 (20100126.1600)
 -->
<!-- Title: Finite_Automata_Graph Pages: 1 -->
<svg width="114pt" height="404pt"
 viewBox="0.00 0.00 114.36 404.00" xmlns="http://www.w3.org/2000/svg" xmlns:xlink="http://www.w3.org/1999/xlink">
<g id="graph1" class="graph" transform="scale(1 1) rotate(0) translate(4 400)">
<title>Finite_Automata_Graph</title>
<polygon fill="white" stroke="white" points="-4,5 -4,-400 111.36,-400 111.36,5 -4,5"/>
<!-- 0 -->
<g id="node1" class="node"><title>0</title>
<ellipse fill="none" stroke="#000000" cx="52.3595" cy="-378" rx="18" ry="18"/>
<text text-anchor="middle" x="52.3595" y="-373.4" font-family="Times Roman,serif" font-size="14.00">0</text>
</g>
<!-- 1 -->
<g id="node2" class="node"><title>1</title>
<ellipse fill="none" stroke="#000000" cx="26.3595" cy="-290" rx="18" ry="18"/>
<text text-anchor="middle" x="26.3595" y="-285.4" font-family="Times Roman,serif" font-size="14.00">1</text>
</g>
<!-- 0&#45;&gt;1 -->
<g id="edge2" class="edge"><title>0&#45;&gt;1</title>
<path fill="none" stroke="black" d="M47.2228,-360.614C43.5549,-348.2 38.5493,-331.258 34.3605,-317.08"/>
<polygon fill="black" stroke="black" points="37.6757,-315.948 31.4856,-307.35 30.9626,-317.932 37.6757,-315.948"/>
<text text-anchor="middle" x="46.8595" y="-329.4" font-family="Times Roman,serif" font-size="14.00">a</text>
</g>
<!-- 2 -->
<g id="node3" class="node"><title>2</title>
<ellipse fill="none" stroke="#000000" cx="80.3595" cy="-290" rx="18" ry="18"/>
<text text-anchor="middle" x="80.3595" y="-285.4" font-family="Times Roman,serif" font-size="14.00">2</text>
</g>
<!-- 0&#45;&gt;2 -->
<g id="edge4" class="edge"><title>0&#45;&gt;2</title>
<path fill="none" stroke="black" d="M57.8914,-360.614C61.8415,-348.2 67.2321,-331.258 71.7431,-317.08"/>
<polygon fill="black" stroke="black" points="75.1423,-317.94 74.8391,-307.35 68.4718,-315.818 75.1423,-317.94"/>
<text text-anchor="middle" x="73.3595" y="-329.4" font-family="Times Roman,serif" font-size="14.00">b</text>
</g>
<!-- 3 -->
<g id="node4" class="node"><title>3</title>
<ellipse fill="none" stroke="#000000" cx="26.3595" cy="-202" rx="18" ry="18"/>
<text text-anchor="middle" x="26.3595" y="-197.4" font-family="Times Roman,serif" font-size="14.00">3</text>
</g>
<!-- 1&#45;&gt;3 -->
<g id="edge6" class="edge"><title>1&#45;&gt;3</title>
<path fill="none" stroke="black" d="M26.3595,-271.766C26.3595,-259.849 26.3595,-244.038 26.3595,-230.482"/>
<polygon fill="black" stroke="black" points="29.8596,-230.21 26.3595,-220.21 22.8596,-230.21 29.8596,-230.21"/>
<text text-anchor="middle" x="30.8595" y="-241.4" font-family="Times Roman,serif" font-size="14.00">a</text>
</g>
<!-- 4 -->
<g id="node5" class="node"><title>4</title>
<ellipse fill="none" stroke="#000000" cx="80.3595" cy="-202" rx="18" ry="18"/>
<text text-anchor="middle" x="80.3595" y="-197.4" font-family="Times Roman,serif" font-size="14.00">4</text>
</g>
<!-- 2&#45;&gt;4 -->
<g id="edge8" class="edge"><title>2&#45;&gt;4</title>
<path fill="none" stroke="black" d="M80.3595,-271.766C80.3595,-259.849 80.3595,-244.038 80.3595,-230.482"/>
<polygon fill="black" stroke="black" points="83.8596,-230.21 80.3595,-220.21 76.8596,-230.21 83.8596,-230.21"/>
<text text-anchor="middle" x="85.3595" y="-241.4" font-family="Times Roman,serif" font-size="14.00">b</text>
</g>
<!-- 5 -->
<g id="node6" class="node"><title>5</title>
<ellipse fill="none" stroke="#000000" cx="38.3595" cy="-22" rx="18" ry="18"/>
<ellipse fill="none" stroke="#000000" cx="38.3595" cy="-22" rx="22" ry="22"/>
<text text-anchor="middle" x="38.3595" y="-17.4" font-family="Times Roman,serif" font-size="14.00">5</text>
</g>
<!-- 3&#45;&gt;5 -->
<g id="edge10" class="edge"><title>3&#45;&gt;5</title>
<path fill="none" stroke="black" d="M18.1164,-185.829C8.56878,-165.035 -4.96744,-127.81 2.35954,-96 6.11153,-79.7109 13.9536,-62.8542 21.3634,-49.351"/>
<polygon fill="black" stroke="black" points="24.4487,-51.0061 26.3686,-40.5866 18.3701,-47.5346 24.4487,-51.0061"/>
<text text-anchor="middle" x="6.85954" y="-109.4" font-family="Times Roman,serif" font-size="14.00">a</text>
</g>
<!-- 6 -->
<g id="node7" class="node"><title>6</title>
<ellipse fill="none" stroke="#000000" cx="38.3595" cy="-114" rx="18" ry="18"/>
<text text-anchor="middle" x="38.3595" y="-109.4" font-family="Times Roman,serif" font-size="14.00">6</text>
</g>
<!-- 3&#45;&gt;6 -->
<g id="edge12" class="edge"><title>3&#45;&gt;6</title>
<path fill="none" stroke="black" d="M28.8459,-183.766C30.4819,-171.77 32.6558,-155.827 34.5126,-142.211"/>
<polygon fill="black" stroke="black" points="38.0341,-142.29 35.9174,-131.909 31.0983,-141.345 38.0341,-142.29"/>
<text text-anchor="middle" x="39.3595" y="-153.4" font-family="Times Roman,serif" font-size="14.00">b</text>
</g>
<!-- 4&#45;&gt;5 -->
<g id="edge14" class="edge"><title>4&#45;&gt;5</title>
<path fill="none" stroke="black" d="M86.8761,-185.031C94.066,-163.718 103.378,-126.275 93.3595,-96 86.9696,-76.6908 73.3735,-58.3194 61.2988,-44.7117"/>
<polygon fill="black" stroke="black" points="63.7882,-42.2485 54.4311,-37.2791 58.6469,-46.999 63.7882,-42.2485"/>
<text text-anchor="middle" x="101.86" y="-109.4" font-family="Times Roman,serif" font-size="14.00">a</text>
</g>
<!-- 4&#45;&gt;6 -->
<g id="edge16" class="edge"><title>4&#45;&gt;6</title>
<path fill="none" stroke="black" d="M72.4597,-185.448C66.3,-172.542 57.6367,-154.39 50.5837,-139.613"/>
<polygon fill="black" stroke="black" points="53.69,-137.995 46.224,-130.478 47.3727,-141.01 53.69,-137.995"/>
<text text-anchor="middle" x="67.3595" y="-153.4" font-family="Times Roman,serif" font-size="14.00">b</text>
</g>
<!-- 6&#45;&gt;5 -->
<g id="edge18" class="edge"><title>6&#45;&gt;5</title>
<path fill="none" stroke="black" d="M38.3595,-95.8238C38.3595,-83.9726 38.3595,-68.1746 38.3595,-54.2345"/>
<polygon fill="black" stroke="black" points="41.8596,-54.0326 38.3595,-44.0326 34.8596,-54.0327 41.8596,-54.0326"/>
<text text-anchor="middle" x="42.8595" y="-65.4" font-family="Times Roman,serif" font-size="14.00">a</text>
</g>
<!-- 6&#45;&gt;6 -->
<g id="edge20" class="edge"><title>6&#45;&gt;6</title>
<path fill="none" stroke="black" d="M54.6498,-121.668C64.7487,-123.517 74.3595,-120.961 74.3595,-114 74.3595,-109.541 70.4152,-106.889 64.9252,-106.045"/>
<polygon fill="black" stroke="black" points="64.5483,-102.554 54.6498,-106.332 64.7436,-109.552 64.5483,-102.554"/>
<text text-anchor="middle" x="79.3595" y="-109.4" font-family="Times Roman,serif" font-size="14.00">b</text>
</g>
</g>
</svg>
