<?xml version="1.0" encoding="UTF-8" standalone="no"?>
<!DOCTYPE svg PUBLIC "-//W3C//DTD SVG 1.1//EN"
 "http://www.w3.org/Graphics/SVG/1.1/DTD/svg11.dtd">
<!-- Generated by graphviz version 2.26.3 (20100126.1600)
 -->
<!-- Title: Finite_Automata_Graph Pages: 1 -->
<svg width="110pt" height="776pt"
 viewBox="0.00 0.00 110.30 776.00" xmlns="http://www.w3.org/2000/svg" xmlns:xlink="http://www.w3.org/1999/xlink">
<g id="graph1" class="graph" transform="scale(1 1) rotate(0) translate(4 772)">
<title>Finite_Automata_Graph</title>
<polygon fill="white" stroke="white" points="-4,5 -4,-772 107.301,-772 107.301,5 -4,5"/>
<!-- 0 -->
<g id="node1" class="node"><title>0</title>
<ellipse fill="none" stroke="#000000" cx="57.3005" cy="-750" rx="18" ry="18"/>
<text text-anchor="middle" x="57.3005" y="-745.4" font-family="Times Roman,serif" font-size="14.00">0</text>
</g>
<!-- 1 -->
<g id="node2" class="node"><title>1</title>
<ellipse fill="none" stroke="#000000" cx="30.3005" cy="-662" rx="18" ry="18"/>
<text text-anchor="middle" x="30.3005" y="-657.4" font-family="Times Roman,serif" font-size="14.00">1</text>
</g>
<!-- 0&#45;&gt;1 -->
<g id="edge2" class="edge"><title>0&#45;&gt;1</title>
<path fill="none" stroke="black" d="M51.9662,-732.614C48.1572,-720.2 42.9591,-703.258 38.6092,-689.08"/>
<polygon fill="black" stroke="black" points="41.9031,-687.883 35.6238,-679.35 35.211,-689.937 41.9031,-687.883"/>
<text text-anchor="middle" x="50.3005" y="-701.4" font-family="Times Roman,serif" font-size="14.00">ε</text>
</g>
<!-- 3 -->
<g id="node4" class="node"><title>3</title>
<ellipse fill="none" stroke="#000000" cx="84.3005" cy="-662" rx="18" ry="18"/>
<text text-anchor="middle" x="84.3005" y="-657.4" font-family="Times Roman,serif" font-size="14.00">3</text>
</g>
<!-- 0&#45;&gt;3 -->
<g id="edge4" class="edge"><title>0&#45;&gt;3</title>
<path fill="none" stroke="black" d="M62.6349,-732.614C66.4438,-720.2 71.642,-703.258 75.9918,-689.08"/>
<polygon fill="black" stroke="black" points="79.39,-689.937 78.9773,-679.35 72.6979,-687.883 79.39,-689.937"/>
<text text-anchor="middle" x="76.3005" y="-701.4" font-family="Times Roman,serif" font-size="14.00">ε</text>
</g>
<!-- 6 -->
<g id="node7" class="node"><title>6</title>
<ellipse fill="none" stroke="#000000" cx="30.3005" cy="-574" rx="18" ry="18"/>
<text text-anchor="middle" x="30.3005" y="-569.4" font-family="Times Roman,serif" font-size="14.00">6</text>
</g>
<!-- 1&#45;&gt;6 -->
<g id="edge6" class="edge"><title>1&#45;&gt;6</title>
<path fill="none" stroke="black" d="M30.3005,-643.766C30.3005,-631.849 30.3005,-616.038 30.3005,-602.482"/>
<polygon fill="black" stroke="black" points="33.8006,-602.21 30.3005,-592.21 26.8006,-602.21 33.8006,-602.21"/>
<text text-anchor="middle" x="34.8005" y="-613.4" font-family="Times Roman,serif" font-size="14.00">a</text>
</g>
<!-- 2 -->
<g id="node3" class="node"><title>2</title>
<ellipse fill="none" stroke="#000000" cx="30.3005" cy="-486" rx="18" ry="18"/>
<text text-anchor="middle" x="30.3005" y="-481.4" font-family="Times Roman,serif" font-size="14.00">2</text>
</g>
<!-- 5 -->
<g id="node6" class="node"><title>5</title>
<ellipse fill="none" stroke="#000000" cx="59.3005" cy="-398" rx="18" ry="18"/>
<text text-anchor="middle" x="59.3005" y="-393.4" font-family="Times Roman,serif" font-size="14.00">5</text>
</g>
<!-- 2&#45;&gt;5 -->
<g id="edge8" class="edge"><title>2&#45;&gt;5</title>
<path fill="none" stroke="black" d="M36.03,-468.614C40.1211,-456.2 45.7043,-439.258 50.3764,-425.08"/>
<polygon fill="black" stroke="black" points="53.7772,-425.943 53.583,-415.35 47.1289,-423.752 53.7772,-425.943"/>
<text text-anchor="middle" x="51.3005" y="-437.4" font-family="Times Roman,serif" font-size="14.00">ε</text>
</g>
<!-- 7 -->
<g id="node8" class="node"><title>7</title>
<ellipse fill="none" stroke="#000000" cx="84.3005" cy="-574" rx="18" ry="18"/>
<text text-anchor="middle" x="84.3005" y="-569.4" font-family="Times Roman,serif" font-size="14.00">7</text>
</g>
<!-- 3&#45;&gt;7 -->
<g id="edge10" class="edge"><title>3&#45;&gt;7</title>
<path fill="none" stroke="black" d="M84.3005,-643.766C84.3005,-631.849 84.3005,-616.038 84.3005,-602.482"/>
<polygon fill="black" stroke="black" points="87.8006,-602.21 84.3005,-592.21 80.8006,-602.21 87.8006,-602.21"/>
<text text-anchor="middle" x="89.3005" y="-613.4" font-family="Times Roman,serif" font-size="14.00">b</text>
</g>
<!-- 4 -->
<g id="node5" class="node"><title>4</title>
<ellipse fill="none" stroke="#000000" cx="84.3005" cy="-486" rx="18" ry="18"/>
<text text-anchor="middle" x="84.3005" y="-481.4" font-family="Times Roman,serif" font-size="14.00">4</text>
</g>
<!-- 4&#45;&gt;5 -->
<g id="edge12" class="edge"><title>4&#45;&gt;5</title>
<path fill="none" stroke="black" d="M79.3613,-468.614C75.8345,-456.2 71.0214,-439.258 66.9938,-425.08"/>
<polygon fill="black" stroke="black" points="70.3291,-424.013 64.2295,-415.35 63.5955,-425.926 70.3291,-424.013"/>
<text text-anchor="middle" x="77.3005" y="-437.4" font-family="Times Roman,serif" font-size="14.00">ε</text>
</g>
<!-- 8 -->
<g id="node9" class="node"><title>8</title>
<ellipse fill="none" stroke="#000000" cx="25.3005" cy="-310" rx="18" ry="18"/>
<text text-anchor="middle" x="25.3005" y="-305.4" font-family="Times Roman,serif" font-size="14.00">8</text>
</g>
<!-- 5&#45;&gt;8 -->
<g id="edge18" class="edge"><title>5&#45;&gt;8</title>
<path fill="none" stroke="black" d="M52.745,-381.033C47.8532,-368.372 41.0777,-350.835 35.4829,-336.354"/>
<polygon fill="black" stroke="black" points="38.7048,-334.982 31.8359,-326.915 32.1752,-337.505 38.7048,-334.982"/>
<text text-anchor="middle" x="50.3005" y="-349.4" font-family="Times Roman,serif" font-size="14.00">ε</text>
</g>
<!-- 10 -->
<g id="node11" class="node"><title>10</title>
<ellipse fill="none" stroke="#000000" cx="54.3005" cy="-129" rx="22.8079" ry="22.8079"/>
<text text-anchor="middle" x="54.3005" y="-124.4" font-family="Times Roman,serif" font-size="14.00">10</text>
</g>
<!-- 5&#45;&gt;10 -->
<g id="edge20" class="edge"><title>5&#45;&gt;10</title>
<path fill="none" stroke="black" d="M58.9647,-379.932C58.1361,-335.352 55.9842,-219.579 54.9179,-162.214"/>
<polygon fill="black" stroke="black" points="58.4173,-162.146 54.732,-152.213 51.4185,-162.277 58.4173,-162.146"/>
<text text-anchor="middle" x="60.3005" y="-261.4" font-family="Times Roman,serif" font-size="14.00">ε</text>
</g>
<!-- 6&#45;&gt;2 -->
<g id="edge14" class="edge"><title>6&#45;&gt;2</title>
<path fill="none" stroke="black" d="M30.3005,-555.766C30.3005,-543.849 30.3005,-528.038 30.3005,-514.482"/>
<polygon fill="black" stroke="black" points="33.8006,-514.21 30.3005,-504.21 26.8006,-514.21 33.8006,-514.21"/>
<text text-anchor="middle" x="34.8005" y="-525.4" font-family="Times Roman,serif" font-size="14.00">a</text>
</g>
<!-- 7&#45;&gt;4 -->
<g id="edge16" class="edge"><title>7&#45;&gt;4</title>
<path fill="none" stroke="black" d="M84.3005,-555.766C84.3005,-543.849 84.3005,-528.038 84.3005,-514.482"/>
<polygon fill="black" stroke="black" points="87.8006,-514.21 84.3005,-504.21 80.8006,-514.21 87.8006,-514.21"/>
<text text-anchor="middle" x="89.3005" y="-525.4" font-family="Times Roman,serif" font-size="14.00">b</text>
</g>
<!-- 9 -->
<g id="node10" class="node"><title>9</title>
<ellipse fill="none" stroke="#000000" cx="25.3005" cy="-222" rx="18" ry="18"/>
<text text-anchor="middle" x="25.3005" y="-217.4" font-family="Times Roman,serif" font-size="14.00">9</text>
</g>
<!-- 8&#45;&gt;9 -->
<g id="edge22" class="edge"><title>8&#45;&gt;9</title>
<path fill="none" stroke="black" d="M12.8274,-296.288C5.04085,-286.034 -2.79093,-271.513 1.30052,-258 2.74805,-253.219 5.06302,-248.493 7.69709,-244.115"/>
<polygon fill="black" stroke="black" points="10.6754,-245.959 13.3764,-235.714 4.87621,-242.039 10.6754,-245.959"/>
<text text-anchor="middle" x="6.30052" y="-261.4" font-family="Times Roman,serif" font-size="14.00">b</text>
</g>
<!-- 9&#45;&gt;8 -->
<g id="edge24" class="edge"><title>9&#45;&gt;8</title>
<path fill="none" stroke="black" d="M25.3005,-240.21C25.3005,-252.122 25.3005,-267.932 25.3005,-281.492"/>
<polygon fill="black" stroke="black" points="21.8006,-281.766 25.3005,-291.766 28.8006,-281.766 21.8006,-281.766"/>
<text text-anchor="middle" x="29.3005" y="-261.4" font-family="Times Roman,serif" font-size="14.00">ε</text>
</g>
<!-- 9&#45;&gt;10 -->
<g id="edge26" class="edge"><title>9&#45;&gt;10</title>
<path fill="none" stroke="black" d="M30.7552,-204.507C34.5945,-192.195 39.8426,-175.365 44.4097,-160.719"/>
<polygon fill="black" stroke="black" points="47.8015,-161.599 47.4371,-151.01 41.1188,-159.515 47.8015,-161.599"/>
<text text-anchor="middle" x="45.3005" y="-173.4" font-family="Times Roman,serif" font-size="14.00">ε</text>
</g>
<!-- 11 -->
<g id="node12" class="node"><title>11</title>
<ellipse fill="none" stroke="#000000" cx="54.3005" cy="-27" rx="22.8079" ry="22.8079"/>
<ellipse fill="none" stroke="#000000" cx="54.3005" cy="-27" rx="26.8079" ry="26.8079"/>
<text text-anchor="middle" x="54.3005" y="-22.4" font-family="Times Roman,serif" font-size="14.00">11</text>
</g>
<!-- 10&#45;&gt;11 -->
<g id="edge28" class="edge"><title>10&#45;&gt;11</title>
<path fill="none" stroke="black" d="M54.3005,-105.855C54.3005,-93.5829 54.3005,-78.2074 54.3005,-64.2999"/>
<polygon fill="black" stroke="black" points="57.8006,-64.0266 54.3005,-54.0266 50.8006,-64.0267 57.8006,-64.0266"/>
<text text-anchor="middle" x="58.8005" y="-75.4" font-family="Times Roman,serif" font-size="14.00">a</text>
</g>
</g>
</svg>
